<svg xmlns="http://www.w3.org/2000/svg" width="49" height="43" viewBox="0 0 49 43"><g><g><g><g><path fill="#1b293f" d="M26.994 4.699H12.91v3.503h14.084zm10.563 3.503a2.347 2.347 0 0 1 2.347 2.347v8.474a13.6 13.6 0 0 0-1.467-.083c-5.5 0-10.233 3.311-12.334 8.04h-4.39v-1.313a1.76 1.76 0 0 0-3.521 0v1.313H4.695A4.695 4.695 0 0 1 0 22.286V10.549a2.348 2.348 0 0 1 2.347-2.347h6.596V4.699A3.968 3.968 0 0 1 12.91.731h14.084A3.968 3.968 0 0 1 30.962 4.7v3.503zM25.185 29.915c-.155.818-.245 1.66-.245 2.522 0 2.754.833 5.316 2.255 7.454h-22.5a2.347 2.347 0 0 1-2.348-2.348v-8.002c.74.24 1.529.374 2.348.374h13.497v.762a1.76 1.76 0 0 0 3.52 0v-.762h3.473z"/></g><g><path fill="#1b293f" d="M37.924 30.414l2.386 1.227c1.425.734 2.18 2.238 1.924 3.833-.198 1.239-.978 2.22-2.064 2.695v.317a1.467 1.467 0 1 1-2.934 0v-.224a4.34 4.34 0 0 1-2.616-2.384 1.469 1.469 0 0 1 2.692-1.172c.242.56.823.894 1.418.844.458-.069.574-.33.607-.54.02-.124.051-.543-.37-.76l-2.386-1.227a3.62 3.62 0 0 1-1.907-3.911c.262-1.402 1.241-2.453 2.562-2.81v-.218a1.467 1.467 0 0 1 2.934 0v.54a4.29 4.29 0 0 1 2.092 2.159 1.466 1.466 0 1 1-2.691 1.17c-.243-.56-.821-.89-1.418-.843-.44.047-.56.36-.595.542-.029.157-.053.546.366.762zm.513-8.54c-5.834 0-10.563 4.73-10.563 10.563 0 5.834 4.73 10.563 10.563 10.563C44.271 43 49 38.27 49 32.437c0-5.834-4.729-10.563-10.563-10.563z"/></g></g></g></g></svg>