<svg xmlns="http://www.w3.org/2000/svg" width="41" height="46" viewBox="0 0 41 46"><g><g><g><path fill="#1eadaf" d="M37.745 13.494c-.181 0-.356.025-.53.054C35.371 5.785 28.576 0 20.477 0 12.38 0 5.587 5.783 3.74 13.543c-.16-.024-.32-.049-.485-.049C1.46 13.494 0 14.97 0 16.785v3.95c0 1.814 1.46 3.29 3.255 3.29.395 0 .769-.081 1.12-.212.957 2.432 3.297 4.162 6.04 4.162a1.31 1.31 0 0 0 1.302-1.316 1.31 1.31 0 0 0-1.302-1.317c-2.154 0-3.906-1.771-3.906-3.95V17.22c.28-7.727 6.43-13.928 13.968-13.928 7.718 0 13.995 6.493 13.995 14.473 0 .033.017.06.019.092v2.879c0 1.814 1.46 3.29 3.254 3.29 1.795 0 3.255-1.476 3.255-3.29v-3.95c0-1.815-1.46-3.291-3.255-3.291z"/></g><g><path fill="#1eadaf" d="M20.477 28.617c5.927 0 10.732-4.859 10.732-10.853 0-5.993-4.805-10.852-10.732-10.852S9.746 11.77 9.746 17.764c0 5.994 4.804 10.853 10.731 10.853zm6.863 3.291c-.85 0-1.647.42-2.134 1.125L22.534 36.9a2.587 2.587 0 0 1-4.288-.029l-2.558-3.809a2.595 2.595 0 0 0-2.153-1.154H9.783c-4.833 0-8.75 3.962-8.75 8.849v3.926A1.31 1.31 0 0 0 2.334 46H38.61c.719 0 1.301-.59 1.301-1.317v-3.926c0-4.887-3.917-8.849-8.75-8.849z"/></g></g></g></svg>