<svg xmlns="http://www.w3.org/2000/svg" width="37" height="41" viewBox="0 0 37 41"><g><g><g><path fill="#2285c3" d="M35.483 1.653c-.838 0-1.517.675-1.517 1.508v28.358c0 .833.679 1.507 1.517 1.507.838 0 1.517-.674 1.517-1.507V3.161c0-.833-.68-1.508-1.517-1.508z"/></g><g><path fill="#2285c3" d="M11.028 23.357h12.137c.838 0 1.517.675 1.517 1.507 0 .833-.68 1.508-1.517 1.508H11.028a1.512 1.512 0 0 1-1.517-1.508c0-.832.679-1.507 1.517-1.507zm6.78-9.19l-2.803-1.433a4.01 4.01 0 0 1-2.13-4.343c.302-1.607 1.462-2.792 3.011-3.146V4.82c0-.833.68-1.507 1.517-1.507.838 0 1.517.674 1.517 1.507v.746a4.866 4.866 0 0 1 2.475 2.484 1.505 1.505 0 0 1-.786 1.985 1.521 1.521 0 0 1-1.997-.781 1.873 1.873 0 0 0-1.872-1.106c-.677.07-.842.58-.882.797-.034.178-.094.786.536 1.108l2.802 1.434c1.592.813 2.436 2.484 2.151 4.256a3.893 3.893 0 0 1-2.427 3.042v.506c0 .832-.68 1.507-1.517 1.507a1.512 1.512 0 0 1-1.517-1.507v-.403a4.877 4.877 0 0 1-3.088-2.723 1.503 1.503 0 0 1 .787-1.983c.77-.33 1.662.02 1.996.782a1.878 1.878 0 0 0 1.872 1.105l.134-.017c.59-.093.731-.58.764-.785.029-.18.074-.784-.544-1.1zm16.63 22.093H6.362c-.879 0-1.59-.708-1.59-1.58 0-.873.711-1.58 1.59-1.58h23.395c.67 0 1.213-.54 1.213-1.207V1.206A1.21 1.21 0 0 0 29.757 0H4.855C2.174 0 0 2.16 0 4.824v31.353C0 38.84 2.174 41 4.855 41h29.583a2.378 2.378 0 0 0 2.385-2.37c0-1.31-1.068-2.37-2.385-2.37z"/></g></g></g></svg>