<svg xmlns="http://www.w3.org/2000/svg" width="42" height="42" viewBox="0 0 42 42"><g><g><g><g><path fill="#3989a1" d="M23.864 20.587l-4.06-2.089c-.918-.472-1.11-1.364-.984-2.041.059-.314.346-1.349 1.631-1.485a3.095 3.095 0 0 1 3.11 1.849 1.8 1.8 0 1 0 3.305-1.436 6.621 6.621 0 0 0-3.617-3.52v-1.35a1.801 1.801 0 1 0-3.602 0v.949c-2.242.389-3.941 2.043-4.369 4.33-.451 2.416.705 4.79 2.878 5.908l4.059 2.089c.9.463 1.105 1.346.997 2.019-.048.3-.293 1.292-1.44 1.475a3.1 3.1 0 0 1-3.327-1.821 1.8 1.8 0 1 0-3.304 1.435 6.675 6.675 0 0 0 4.506 3.811v.904a1.801 1.801 0 1 0 3.602 0v-1.003c1.852-.632 3.197-2.21 3.52-4.232.387-2.41-.754-4.684-2.905-5.792z"/></g><g><path fill="#3989a1" d="M35.855 6.129C28.384-1.343 16.657-1.973 8.434 4.182L6.746 2.494c-.955-.954-2.589-.39-2.75.95l-.929 7.667a1.618 1.618 0 0 0 1.801 1.801l7.667-.928c1.34-.162 1.904-1.796.95-2.75l-1.61-1.61c6.807-4.65 16.385-3.56 21.855 3.328 4.625 5.826 4.614 14.292-.026 20.107-6.132 7.686-17.417 8.152-24.173 1.395-3.953-3.953-5.417-9.45-4.423-14.564a.598.598 0 0 0-.582-.722H.865a.61.61 0 0 0-.602.508C-.909 25.044 1.83 32.917 8.505 37.9c7.544 5.632 18.185 5.437 25.542-.435 9.963-7.95 10.565-22.579 1.808-31.336z"/></g></g></g></g></svg>