<svg xmlns="http://www.w3.org/2000/svg" width="43" height="78" viewBox="0 0 43 78"><g><g><g><g><g><g><path fill="#173042" d="M39.784 29.818c-1.421-.23-3.062.324-4.187 1.282-.395-1.589-1.91-2.938-3.543-3.202-1.353-.22-2.893.275-4.005 1.149-.501-1.53-2.138-2.813-3.725-3.07-1.532-.247-3.621.565-4.515 1.681V15.525c0-1.679-.995-3.298-2.605-3.805-2.67-.84-5.125 1.116-5.125 3.642v30.726c-2.135 0-3.865-1.72-3.865-3.84v-3.469c0-.736-.601-1.333-1.341-1.333H5.707c-2.885 0-5.224 2.325-5.224 5.192v9.48c0 1.66.72 3.239 1.977 4.333l5.202 4.532a5.821 5.821 0 0 0 3.822 1.428h21.384a5.816 5.816 0 0 0 4.1-1.687l4.334-4.307A5.743 5.743 0 0 0 43 52.343V33.812c0-1.913-1.316-3.687-3.216-3.994z"/></g><g><path fill="#173042" d="M7.73 16.323c0 1.326-1.081 2.4-2.415 2.4h-2.9A2.408 2.408 0 0 1 0 16.323c0-1.326 1.081-2.4 2.416-2.4h2.899a2.408 2.408 0 0 1 2.415 2.4zM4.812 8.175a2.39 2.39 0 0 1 0-3.394 2.426 2.426 0 0 1 3.416 0l2.05 2.037a2.388 2.388 0 0 1 0 3.394 2.416 2.416 0 0 1-1.709.703 2.416 2.416 0 0 1-1.708-.703zm28.563 64.387c0-1.127-.918-2.04-2.052-2.04a2.046 2.046 0 0 0-2.052 2.04c0 1.126.919 2.04 2.052 2.04a2.046 2.046 0 0 0 2.052-2.04zm3.827-4.478v8.956c0 .53-.432.96-.966.96H8.862a.963.963 0 0 1-.966-.96v-8.956c0-.53.432-.96.966-.96h27.374c.534 0 .966.43.966.96zM14.012 5.28v-2.88c0-1.326 1.08-2.4 2.415-2.4a2.408 2.408 0 0 1 2.416 2.4v2.88c0 1.326-1.082 2.4-2.416 2.4a2.408 2.408 0 0 1-2.416-2.4zm13.527 8.642h2.9a2.408 2.408 0 0 1 2.415 2.4c0 1.326-1.082 2.4-2.416 2.4H27.54a2.408 2.408 0 0 1-2.415-2.4c0-1.326 1.081-2.4 2.415-2.4zm-4.962-3.711a2.389 2.389 0 0 1 0-3.394l2.05-2.037a2.426 2.426 0 0 1 3.415 0 2.39 2.39 0 0 1 0 3.394l-2.05 2.037a2.416 2.416 0 0 1-1.707.703 2.417 2.417 0 0 1-1.708-.703z"/></g></g></g></g><g><path fill="#fff" d="M14.011 5.28V2.4c0-1.325 1.082-2.399 2.416-2.399a2.407 2.407 0 0 1 2.415 2.4v2.88c0 1.325-1.08 2.4-2.415 2.4a2.408 2.408 0 0 1-2.416-2.4zm-7.15 4.932l-2.05-2.037a2.389 2.389 0 0 1 0-3.393 2.424 2.424 0 0 1 3.417 0l2.049 2.036a2.388 2.388 0 0 1 0 3.394 2.42 2.42 0 0 1-3.415 0zm15.716 0a2.388 2.388 0 0 1 0-3.394l2.05-2.036a2.422 2.422 0 0 1 3.415 0 2.386 2.386 0 0 1 0 3.393l-2.049 2.037a2.423 2.423 0 0 1-3.416 0zm-20.161 8.51A2.408 2.408 0 0 1 0 16.323c0-1.325 1.082-2.4 2.416-2.4h2.898a2.408 2.408 0 0 1 2.416 2.4c0 1.326-1.08 2.4-2.416 2.4zm25.123 0a2.408 2.408 0 0 1-2.416-2.4c0-1.325 1.082-2.4 2.416-2.4h2.899a2.408 2.408 0 0 1 2.415 2.4c0 1.326-1.08 2.4-2.415 2.4zm-16.055 43.69a5.82 5.82 0 0 1-3.822-1.43L2.46 56.451a5.744 5.744 0 0 1-1.977-4.333v-9.48c0-2.867 2.34-5.191 5.225-5.191h1.164c.741 0 1.341.596 1.341 1.332v3.469c0 2.12 1.73 3.84 3.865 3.84V15.363c0-2.527 2.456-4.484 5.126-3.642 1.61.507 2.605 2.125 2.605 3.803v12.134c.893-1.117 2.984-1.929 4.514-1.681 1.588.256 3.225 1.54 3.726 3.07 1.112-.874 2.651-1.368 4.006-1.15 1.633.265 3.146 1.614 3.542 3.203 1.125-.958 2.766-1.512 4.188-1.283 1.9.308 3.216 2.08 3.216 3.995v18.53a5.747 5.747 0 0 1-1.699 4.075l-4.335 4.307a5.812 5.812 0 0 1-4.099 1.687zm17.787 10.15c0 1.126.919 2.04 2.052 2.04a2.047 2.047 0 0 0 2.053-2.04c0-1.126-.92-2.04-2.053-2.04a2.047 2.047 0 0 0-2.052 2.04zM8.86 78a.962.962 0 0 1-.966-.96v-8.957c0-.53.433-.96.967-.96h27.373c.534 0 .968.43.968.96v8.957c0 .53-.434.96-.968.96z"/></g></g></g></svg>