<svg width="20" height="19" viewBox="0 0 20 19" fill="none" xmlns="http://www.w3.org/2000/svg">
<path d="M19.4934 18.3516V18.3508H19.4983V11.874C19.4983 8.70543 18.7398 6.26465 14.6211 6.26465C12.6411 6.26465 11.3123 7.24184 10.7699 8.16827H10.7126V6.56046H6.80737V18.3508H10.8738V12.5127C10.8738 10.9755 11.1978 9.4891 13.3144 9.4891C15.4 9.4891 15.4311 11.2433 15.4311 12.6113V18.3516H19.4934Z" fill="white"/>
<path d="M0.208252 6.26465H4.26941V18.3516H0.208252V6.26465Z" fill="white"/>
<path d="M2.49292 0.725586C1.23181 0.725586 0.208496 1.73596 0.208496 2.98113C0.208496 4.2263 1.23181 5.25781 2.49292 5.25781C3.75403 5.25781 4.77734 4.2263 4.77734 2.98113C4.77655 1.73596 3.75324 0.725586 2.49292 0.725586V0.725586Z" fill="white"/>
</svg>
