<svg xmlns="http://www.w3.org/2000/svg" width="16" height="16" viewBox="0 0 16 16"><g><g><path fill="#2285c3" d="M12.64 15.998c-2.602-.186-5.727-1.487-8.438-4.196C1.492 9.091.189 5.97.002 3.37-.062 2.48 1.196.606 2.495.166c.942-.317 1.579-.22 2.028.647l1.1 2.038c.266.496.073.881-.516 1.309-1.291.937-1.546 1.393-.903 2.543.6 1.075 1.313 1.843 2.278 2.808.965.965 1.735 1.677 2.81 2.276 1.151.643 1.607.388 2.545-.903.428-.587.814-.78 1.31-.514l2.04 1.099c.866.449.965 1.085.646 2.025-.428 1.268-2.213 2.507-3.126 2.507-.023 0-.045-.001-.067-.003z"/></g></g></svg>