<svg xmlns="http://www.w3.org/2000/svg" width="46" height="43" viewBox="0 0 46 43"><g><g><g><g><g><g><path fill="#173042" d="M40.616 24.448L23.765 9.678a1.162 1.162 0 0 0-1.53 0l-16.85 14.77a.572.572 0 0 0-.196.43v17.373c0 .316.259.573.578.573h11.845a.575.575 0 0 0 .577-.573V31.155a2.3 2.3 0 0 1 2.31-2.292h5.002a2.3 2.3 0 0 1 2.31 2.292V42.25c0 .316.258.573.577.573h11.845a.575.575 0 0 0 .578-.573V24.878a.571.571 0 0 0-.195-.43z"/></g><g><path fill="#173042" d="M45.258 18.717L26.05 1.965a4.646 4.646 0 0 0-6.1 0L.742 18.717a2.155 2.155 0 0 0-.103 3.158c.815.808 2.122.85 2.986.094l17.848-15.6a2.323 2.323 0 0 1 3.054 0l17.848 15.6a2.195 2.195 0 0 0 2.986-.094 2.154 2.154 0 0 0-.103-3.158z"/></g></g></g></g><g><path fill="#2285c3" d="M43.816 22.51c.561 0 1.12-.214 1.545-.635a2.154 2.154 0 0 0-.103-3.158L26.05 1.965a4.646 4.646 0 0 0-6.098 0L.742 18.717a2.153 2.153 0 0 0-.102 3.158c.425.422.984.634 1.543.634.514 0 1.029-.179 1.442-.54l17.849-15.6a2.321 2.321 0 0 1 3.053 0l17.848 15.6c.414.361.928.54 1.441.54zm-3.583 20.314a.576.576 0 0 0 .578-.573V24.878a.572.572 0 0 0-.195-.43L23.764 9.677a1.162 1.162 0 0 0-1.529 0l-16.85 14.77a.572.572 0 0 0-.196.43v17.374c0 .316.259.573.578.573h11.845a.576.576 0 0 0 .578-.573V31.155a2.301 2.301 0 0 1 2.31-2.293H25.5a2.301 2.301 0 0 1 2.31 2.293V42.25c0 .316.258.573.578.573z"/></g></g></g></svg>