<svg xmlns="http://www.w3.org/2000/svg" width="28" height="24" viewBox="0 0 28 24"><g><g><path fill="#2285c3" d="M25.793 12.082c.252.207.565.31.878.31.341 0 .682-.123.94-.363a1.18 1.18 0 0 0-.063-1.805L15.856.651a2.97 2.97 0 0 0-3.712 0L.452 10.224a1.18 1.18 0 0 0-.063 1.805 1.4 1.4 0 0 0 1.818.053L13.07 3.17a1.485 1.485 0 0 1 1.858 0l10.864 8.913zM24.49 24c.194 0 .35-.147.35-.328v-9.928a.319.319 0 0 0-.117-.244L14.466 5.059a.743.743 0 0 0-.932 0l-10.257 8.44a.32.32 0 0 0-.119.245v9.928c0 .181.158.328.352.328h7.21c.194 0 .352-.147.352-.328v-6.34c0-.724.629-1.31 1.406-1.31h3.044c.777 0 1.406.586 1.406 1.31v6.34c0 .181.158.328.352.328z"/></g></g></svg>