<svg xmlns="http://www.w3.org/2000/svg" width="47" height="47" viewBox="0 0 47 47"><g><g><g><path fill="#3989a1" d="M31.373 26.376a2.243 2.243 0 0 0-2.24 2.24 2.243 2.243 0 0 0 2.24 2.24 2.243 2.243 0 0 0 2.24-2.24 2.243 2.243 0 0 0-2.24-2.24z"/></g><g transform="rotate(-76.648 15.63 18.38)"><path fill="#3989a1" d="M13.387 18.384a2.24 2.24 0 1 1 4.48 0 2.24 2.24 0 0 1-4.48 0z"/></g><g><path fill="#3989a1" d="M31.373 33.598a4.987 4.987 0 0 1-4.982-4.982 4.987 4.987 0 0 1 4.982-4.982 4.987 4.987 0 0 1 4.982 4.982 4.987 4.987 0 0 1-4.982 4.982zm-11.504-.554a.627.627 0 0 1-.544.317h-2.169a.627.627 0 0 1-.545-.937l10.52-18.469a.626.626 0 0 1 .544-.316h2.169c.48 0 .783.519.545.937zm-9.225-14.66a4.987 4.987 0 0 1 4.983-4.982 4.987 4.987 0 0 1 4.982 4.982 4.987 4.987 0 0 1-4.982 4.982 4.987 4.987 0 0 1-4.983-4.982zm33.139 10.552C44.274 27.1 47 25.492 47 23.5s-2.726-3.6-3.217-5.436c-.508-1.9 1.034-4.653.072-6.317-.977-1.688-4.14-1.721-5.51-3.091s-1.404-4.534-3.092-5.51c-1.664-.963-4.416.579-6.317.07C27.1 2.727 25.492 0 23.5 0s-3.599 2.726-5.436 3.217c-1.9.508-4.652-1.034-6.317-.072-1.687.977-1.721 4.14-3.091 5.51s-4.533 1.404-5.51 3.092c-.963 1.664.58 4.416.071 6.316C2.726 19.901 0 21.508 0 23.5c0 1.992 2.726 3.599 3.217 5.436.508 1.9-1.034 4.652-.071 6.316.976 1.688 4.14 1.722 5.51 3.092s1.403 4.533 3.091 5.51c1.664.963 4.416-.58 6.317-.071C19.9 44.273 21.508 47 23.5 47s3.599-2.726 5.436-3.217c1.9-.508 4.652 1.034 6.316.071 1.689-.976 1.722-4.14 3.092-5.51s4.533-1.403 5.51-3.091c.963-1.664-.58-4.416-.071-6.317z"/></g></g></g></svg>