<svg xmlns="http://www.w3.org/2000/svg" width="38" height="40" viewBox="0 0 38 40"><g><g><g><path fill="#1b293f" d="M31.384 9.127h-6.423c-.911 0-1.65-.722-1.65-1.613 0-.89.739-1.613 1.65-1.613h6.423c.912 0 1.65.722 1.65 1.613 0 .89-.738 1.613-1.65 1.613zm0 6.451h-6.423c-.911 0-1.65-.722-1.65-1.613 0-.89.739-1.612 1.65-1.612h6.423c.912 0 1.65.722 1.65 1.612 0 .891-.738 1.613-1.65 1.613zm0 6.371h-6.423c-.911 0-1.65-.721-1.65-1.612 0-.891.739-1.613 1.65-1.613h6.423c.912 0 1.65.722 1.65 1.613 0 .89-.738 1.612-1.65 1.612zm0 6.533H13.561c-.912 0-1.65-.722-1.65-1.613s.738-1.613 1.65-1.613h17.823c.912 0 1.65.722 1.65 1.613 0 .89-.738 1.613-1.65 1.613zm-7.921 6.451h-9.902c-.912 0-1.65-.722-1.65-1.613 0-.89.738-1.613 1.65-1.613h9.902c.912 0 1.65.722 1.65 1.613s-.738 1.613-1.65 1.613zM12.435 15.325c.838-.355 1.81.022 2.172.837.273.613.91.979 1.594.926.516-.077.645-.364.684-.595.022-.136.057-.596-.418-.834l-2.684-1.35c-1.618-.815-2.48-2.542-2.143-4.3a3.901 3.901 0 0 1 2.88-3.088V6.68c0-.891.74-1.613 1.65-1.613.912 0 1.65.722 1.65 1.613v.595c1.033.486 1.879 1.304 2.355 2.372a1.6 1.6 0 0 1-.855 2.124c-.838.354-1.808-.018-2.172-.836a1.598 1.598 0 0 0-1.596-.927c-.495.05-.63.394-.668.594-.034.173-.06.603.41.838l2.684 1.351c1.603.805 2.453 2.459 2.165 4.211a3.865 3.865 0 0 1-2.322 2.964v.35c0 .89-.739 1.612-1.65 1.612-.912 0-1.65-.722-1.65-1.613v-.244a4.836 4.836 0 0 1-2.942-2.624 1.599 1.599 0 0 1 .856-2.122zM35.36 0H9.118c-1.458 0-2.64 1.155-2.64 2.58v34.84c0 1.425 1.182 2.58 2.64 2.58h26.241C36.818 40 38 38.845 38 37.42V2.58C38 1.156 36.818 0 35.36 0z"/></g><g><path fill="#1b293f" d="M1.65 3.214C.74 3.214 0 3.937 0 4.827v30.346c0 .89.739 1.613 1.65 1.613.912 0 1.65-.722 1.65-1.613V4.827c0-.89-.738-1.613-1.65-1.613z"/></g></g></g></svg>