<svg xmlns="http://www.w3.org/2000/svg" width="42" height="46" viewBox="0 0 42 46"><g><g><g><g><g><g><g><g><path fill="#1eadaf" d="M26.789 30.965c-.998 0-1.81-.816-1.81-1.819 0-1.002.812-1.818 1.81-1.818.997 0 1.809.816 1.809 1.818a1.816 1.816 0 0 1-1.81 1.82zm0-5.864c-2.22 0-4.024 1.814-4.024 4.045 0 2.232 1.805 4.046 4.024 4.046 2.219 0 4.024-1.814 4.024-4.046 0-2.23-1.805-4.045-4.024-4.045z"/></g><g><path fill="#1eadaf" d="M25.553 16.985h-1.751a.505.505 0 0 0-.44.257l-8.497 14.997c-.192.34.052.76.44.76h1.752c.182 0 .35-.098.44-.256l8.496-14.997a.509.509 0 0 0-.44-.761z"/></g></g><g><path fill="#1eadaf" d="M14.07 22.657c-.998 0-1.81-.817-1.81-1.819s.812-1.819 1.81-1.819c.997 0 1.809.817 1.809 1.82a1.816 1.816 0 0 1-1.81 1.818zm0-5.864c-2.22 0-4.024 1.814-4.024 4.045 0 2.23 1.804 4.046 4.024 4.046 2.219 0 4.024-1.815 4.024-4.046 0-2.231-1.805-4.045-4.024-4.045z"/></g></g></g></g></g><g><g><g><path fill="#1eadaf" d="M24 4.027V1.63c0-1.356-1.553-2.116-2.615-1.28l-6.073 4.788a1.63 1.63 0 0 0 0 2.558l6.073 4.787c1.062.837 2.615.077 2.615-1.279V8.916a16.271 16.271 0 0 1 13.09 17.889c-.848 7.424-6.837 13.429-14.223 14.264C13.102 42.172 4.8 34.487 4.8 24.889c0-5.616 2.85-10.562 7.164-13.488a.602.602 0 0 0 .1-.926l-2.587-2.6a.606.606 0 0 0-.784-.067C2.659 12.209-.968 19.747.227 28.028c1.351 9.359 9.008 16.78 18.355 17.835C31.24 47.293 42 37.33 42 24.888c0-10.614-7.841-19.391-18-20.86z"/></g></g></g></g></g></svg>