<svg xmlns="http://www.w3.org/2000/svg" width="55" height="61" viewBox="0 0 55 61"><g><g><g><g><g><g><path fill="#173042" d="M50.634 17.894c-.243 0-.478.034-.71.072C47.447 7.672 38.333 0 27.47 0 16.608 0 7.495 7.67 5.017 17.96c-.213-.032-.428-.066-.651-.066A4.37 4.37 0 0 0 0 22.26v5.237a4.37 4.37 0 0 0 4.366 4.365c.53 0 1.032-.11 1.503-.283 1.283 3.226 4.423 5.52 8.102 5.52a1.746 1.746 0 1 0 0-3.492c-2.889 0-5.24-2.349-5.24-5.237v-5.535c.377-10.247 8.626-18.47 18.739-18.47 10.352 0 18.773 8.61 18.773 19.193 0 .044.023.08.025.123v3.816a4.37 4.37 0 0 0 4.366 4.365A4.37 4.37 0 0 0 55 27.496V22.26a4.37 4.37 0 0 0-4.366-4.365z"/></g><g><path fill="#173042" d="M27.47 37.949c7.95 0 14.396-6.444 14.396-14.392 0-7.948-6.445-14.392-14.397-14.392-7.95 0-14.395 6.444-14.395 14.392 0 7.948 6.445 14.392 14.395 14.392zM41.8 42.313h-5.125c-1.141 0-2.21.557-2.864 1.492l-3.583 5.128c-1.401 2.005-4.378 1.986-5.753-.038l-3.43-5.051a3.492 3.492 0 0 0-2.89-1.53h-5.033c-6.482 0-11.738 5.253-11.738 11.733v5.207c0 .964.782 1.746 1.747 1.746h48.66c.965 0 1.747-.782 1.747-1.746v-5.207c0-6.48-5.255-11.734-11.738-11.734z"/></g></g></g></g><g><path fill="#fff" d="M5.87 31.578c1.282 3.227 4.422 5.52 8.102 5.52a1.746 1.746 0 0 0 0-3.492 5.245 5.245 0 0 1-5.24-5.237v-5.535c.375-10.248 8.624-18.47 18.738-18.47 10.351 0 18.773 8.61 18.773 19.193 0 .044.022.08.025.123v3.816a4.37 4.37 0 0 0 4.366 4.365A4.37 4.37 0 0 0 55 27.496v-5.237a4.37 4.37 0 0 0-4.366-4.364c-.244 0-.478.033-.711.071C47.448 7.672 38.334 0 27.47 0 16.608 0 7.496 7.668 5.018 17.96c-.215-.032-.43-.065-.652-.065A4.371 4.371 0 0 0 0 22.259v5.237a4.372 4.372 0 0 0 4.366 4.365c.53 0 1.032-.109 1.503-.283zm21.6 6.371c7.95 0 14.396-6.444 14.396-14.392 0-7.948-6.445-14.392-14.396-14.392-7.951 0-14.396 6.444-14.396 14.392 0 7.948 6.445 14.392 14.396 14.392zM51.792 61c.965 0 1.747-.781 1.747-1.746v-5.207c0-6.481-5.255-11.733-11.738-11.733h-5.125c-1.142 0-2.21.556-2.864 1.491l-3.583 5.128c-1.4 2.005-4.378 1.985-5.752-.038l-3.431-5.05a3.492 3.492 0 0 0-2.89-1.531h-5.033c-6.482 0-11.738 5.252-11.738 11.733v5.207c0 .965.783 1.746 1.747 1.746z"/></g></g></g></svg>