<svg width="11" height="20" viewBox="0 0 11 20" fill="none" xmlns="http://www.w3.org/2000/svg">
<path d="M3.43535 10.8271C3.36276 10.8271 1.76563 10.8271 1.03967 10.8271C0.652488 10.8271 0.531494 10.6831 0.531494 10.323C0.531494 9.36276 0.531494 8.37852 0.531494 7.41829C0.531494 7.0342 0.676687 6.91417 1.03967 6.91417H3.43535C3.43535 6.84215 3.43535 5.44981 3.43535 4.80166C3.43535 3.84142 3.60474 2.9292 4.08872 2.089C4.59689 1.22479 5.32286 0.648646 6.24241 0.312564C6.84738 0.0965114 7.45235 0.000488281 8.10572 0.000488281H10.4772C10.816 0.000488281 10.9612 0.144523 10.9612 0.480605V3.21727C10.9612 3.55335 10.816 3.69739 10.4772 3.69739C9.82384 3.69739 9.17047 3.69739 8.5171 3.72139C7.86373 3.72139 7.52495 4.03347 7.52495 4.70563C7.50075 5.42581 7.52495 6.12198 7.52495 6.86616H10.332C10.7192 6.86616 10.8644 7.01019 10.8644 7.39429V10.299C10.8644 10.6831 10.7434 10.8031 10.332 10.8031C9.46086 10.8031 7.59755 10.8031 7.52495 10.8031V18.629C7.52495 19.0371 7.40396 19.1812 6.96838 19.1812C5.95203 19.1812 4.95988 19.1812 3.94353 19.1812C3.58054 19.1812 3.43535 19.0371 3.43535 18.677C3.43535 16.1564 3.43535 10.8991 3.43535 10.8271Z" fill="white"/>
</svg>
