<svg xmlns="http://www.w3.org/2000/svg" width="70" height="62" viewBox="0 0 70 62"><g><g><g><path fill="#3989a1" d="M67.04 19.43c-3.08-2.078-7.268-1.274-9.353 1.794-.368.541-.615 1.123-.806 1.716l-6.326.42c.431 1.561.68 3.197.682 4.893l5.97-.396a6.65 6.65 0 0 0 2.28 2.683c3.082 2.078 7.27 1.274 9.354-1.794a6.693 6.693 0 0 0-1.801-9.317zM26.744 50.227l1.078-4.024a18.549 18.549 0 0 1-4.609-1.91l-1.3 4.856a6.475 6.475 0 0 0-4.282 2.74 6.462 6.462 0 0 0 1.74 8.996c2.974 2.005 7.016 1.23 9.03-1.733 1.992-2.931 1.242-6.9-1.657-8.925zm-6.937-35.432l-3.793-3.148a8.3 8.3 0 0 0-2.966-10.216C9.224-1.146 4.026-.148 1.438 3.66-1.15 7.468-.149 12.646 3.674 15.224c2.824 1.905 6.393 1.847 9.111.157l3.91 3.245a18.68 18.68 0 0 1 3.112-3.83z"/></g><g><path fill="#3989a1" d="M31.787 25.492l3.352 1.718c2 1.025 3.063 3.13 2.704 5.361-.278 1.735-1.374 3.109-2.9 3.774v.959a2.057 2.057 0 0 1-2.062 2.053 2.057 2.057 0 0 1-2.06-2.053v-.83a6.071 6.071 0 0 1-3.674-3.336 2.05 2.05 0 0 1 1.07-2.702 2.063 2.063 0 0 1 2.711 1.066 1.991 1.991 0 0 0 1.992 1.179c.643-.097.806-.465.854-.758.027-.173.07-.758-.522-1.062l-3.353-1.718a5.06 5.06 0 0 1-2.676-5.474c.368-1.961 1.743-3.433 3.597-3.93v-.307c0-1.134.923-2.053 2.061-2.053 1.14 0 2.062.92 2.062 2.053v.757a6.037 6.037 0 0 1 2.94 3.02 2.05 2.05 0 0 1-1.067 2.702 2.062 2.062 0 0 1-2.714-1.063 1.978 1.978 0 0 0-1.993-1.18c-.619.065-.786.502-.835.757-.041.22-.074.766.513 1.067zm.808-11.683c-8.02 0-14.521 6.476-14.521 14.464 0 7.989 6.501 14.465 14.521 14.465s14.521-6.476 14.521-14.465c0-7.988-6.501-14.464-14.52-14.464z"/></g></g></g></svg>