<svg xmlns="http://www.w3.org/2000/svg" width="52" height="58" viewBox="0 0 52 58"><g><g><g><path fill="#52bec5" d="M47.872 17.014c-.23 0-.452.032-.672.069C44.86 7.294 36.243 0 25.972 0 15.702 0 7.086 7.292 4.744 17.077c-.202-.03-.405-.063-.616-.063-2.276 0-4.128 1.862-4.128 4.15v4.98c0 2.288 1.852 4.15 4.128 4.15.501 0 .976-.104 1.42-.269 1.214 3.068 4.183 5.249 7.661 5.249.912 0 1.651-.744 1.651-1.66 0-.917-.74-1.66-1.65-1.66-2.732 0-4.954-2.234-4.954-4.98V21.71C8.61 11.968 16.41 4.15 25.972 4.15c9.787 0 17.749 8.186 17.749 18.249 0 .041.021.075.023.116v3.629c0 2.288 1.852 4.15 4.128 4.15S52 28.432 52 26.144v-4.98c0-2.288-1.852-4.15-4.128-4.15z"/></g><g><path fill="#52bec5" d="M25.971 36.083c7.518 0 13.612-6.127 13.612-13.684 0-7.557-6.094-13.684-13.612-13.684-7.517 0-13.61 6.127-13.61 13.684 0 7.557 6.093 13.684 13.61 13.684zm13.55 4.15h-4.846c-1.079 0-2.089.529-2.707 1.418l-3.388 4.875a3.292 3.292 0 0 1-5.439-.036l-3.243-4.802a3.296 3.296 0 0 0-2.732-1.455h-4.759c-6.129 0-11.097 4.994-11.097 11.156v4.951c0 .917.739 1.66 1.65 1.66h46.007c.912 0 1.651-.743 1.651-1.66v-4.951c0-6.162-4.968-11.156-11.097-11.156z"/></g></g></g></svg>