<svg xmlns="http://www.w3.org/2000/svg" width="58" height="62" viewBox="0 0 58 62"><g><g><g><path fill="#1eadaf" d="M57.112 37.576a4.093 4.093 0 0 0-5.773-.695l-11.644 9.213a3.269 3.269 0 0 1-2.026.707l-8.343.009a2.066 2.066 0 0 1-2.058-2.075 2.066 2.066 0 0 1 2.054-2.078l6.992-.007c2.27-.003 4.11-1.864 4.108-4.157-.002-2.294-1.845-4.152-4.117-4.15l-7.742.008-5.287.006-2.978.003h-1.081a9.819 9.819 0 0 0-6.092 2.13L7.414 41.02a.837.837 0 0 0-.138 1.168l11.095 14.17a.82.82 0 0 0 .638.316l13.42.114 3.711.031a9.81 9.81 0 0 0 6.205-2.148l14.09-11.25a4.188 4.188 0 0 0 .677-5.844z"/></g><g><path fill="#1eadaf" d="M34.86 11.816c-.585-.304-.553-.856-.511-1.08.048-.257.215-.7.832-.765.83-.087 1.648.402 1.989 1.194a2.047 2.047 0 0 0 2.707 1.075 2.084 2.084 0 0 0 1.065-2.733 6.06 6.06 0 0 0-2.934-3.056v-.763c0-1.147-.92-2.077-2.056-2.077-1.135 0-2.056.93-2.056 2.076v.31c-1.85.503-3.222 1.992-3.589 3.976-.42 2.262.654 4.487 2.67 5.536l3.345 1.737c.59.308.547.9.52 1.074-.048.297-.21.669-.851.767a1.979 1.979 0 0 1-1.988-1.193 2.047 2.047 0 0 0-2.705-1.077 2.084 2.084 0 0 0-1.066 2.732 6.09 6.09 0 0 0 3.664 3.375v.318c0 1.147.92 2.077 2.056 2.077 1.136 0 2.056-.93 2.056-2.077v-.45c1.523-.672 2.616-2.061 2.894-3.816.358-2.256-.702-4.386-2.698-5.422l-3.344-1.738zm15.293 2.813c0 8.08-6.486 14.63-14.487 14.63-8 0-14.486-6.55-14.486-14.63C21.18 6.55 27.666 0 35.666 0c8.001 0 14.487 6.55 14.487 14.63zM14.879 58.593a.836.836 0 0 1-.135 1.167l-2.58 2.06a.817.817 0 0 1-1.156-.135L.178 47.852a.836.836 0 0 1 .134-1.167l2.581-2.06a.817.817 0 0 1 1.156.136z"/></g></g></g></svg>