<svg xmlns="http://www.w3.org/2000/svg" width="57" height="57" viewBox="0 0 57 57"><g><g><g><path fill="#1b293f" d="M41.193 22.764a4.92 4.92 0 1 1-6.957-6.957 4.92 4.92 0 0 1 6.957 6.957zM54.265.03L47.17 1.182c-7.078.977-13.291 4.177-17.813 9.174l-7.952 8.714-10.836-.633a1.64 1.64 0 0 0-1.458.724L3.66 27.302a1.64 1.64 0 0 0 .684 2.405l7.69 3.496 11.764 11.764 3.5 7.698a1.64 1.64 0 0 0 2.399.688l8.264-5.484a1.64 1.64 0 0 0 .73-1.475l-.723-10.832 8.677-7.919c4.997-4.521 8.197-10.735 9.174-17.812l1.15-7.096A2.355 2.355 0 0 0 54.266.03z"/></g><g><path fill="#1b293f" d="M19.643 46.434l-9.077-9.077a.646.646 0 0 0-.908-.011 144.35 144.35 0 0 0-1.414 1.388C.225 46.752 0 57 0 57s10.248-.225 18.266-8.244c.243-.242.912-.92 1.388-1.414a.646.646 0 0 0-.01-.908z"/></g></g></g></svg>