<svg xmlns="http://www.w3.org/2000/svg" width="47" height="43" viewBox="0 0 47 43"><g><g><g><g><g><g><g><g><path fill="#173042" d="M46.923 41.059l-2.147-6.552a1.47 1.47 0 0 1 .095-1.126c1.613-3.189 2.28-6.953 1.582-10.922-1.07-6.083-5.45-11.139-11.131-13.077a20.705 20.705 0 0 1 1.18 11.575C35.014 29.03 28.66 35.428 20.69 36.882c-1.032.188-2.074.28-3.109.307 2.42 2.656 5.652 4.544 9.256 5.202 3.878.707 7.562.048 10.688-1.568a1.402 1.402 0 0 1 1.1-.093l6.466 2.192c1.133.384 2.21-.712 1.832-1.863z"/></g><g><path fill="#173042" d="M18.995 18.729l.03.844c0 1.172-.934 2.123-2.087 2.123s-2.088-.95-2.088-2.123v-.768c0-1.842 1.102-3.48 2.74-4.076a1.98 1.98 0 0 0 1.291-1.852 1.995 1.995 0 0 0-.589-1.39 1.93 1.93 0 0 0-1.365-.598c-1.066.006-1.933.893-1.933 1.977 0 1.172-.935 2.123-2.088 2.123-1.152 0-2.087-.95-2.087-2.123 0-3.414 2.73-6.206 6.086-6.224 1.624-.055 3.18.663 4.34 1.843a6.306 6.306 0 0 1 1.812 4.415c-.014 2.61-1.646 4.952-4.062 5.829zm-2.057 9.452c-1.171 0-2.121-.965-2.121-2.157 0-1.191.95-2.157 2.121-2.157 1.172 0 2.121.966 2.121 2.157 0 1.192-.95 2.157-2.121 2.157zM13.85.305C7.134 1.575 1.75 7.125.547 13.965-.15 17.933.515 21.698 2.13 24.887c.178.35.218.752.095 1.125L.077 32.564c-.378 1.152.7 2.247 1.832 1.863l6.466-2.192a1.402 1.402 0 0 1 1.1.093c3.126 1.617 6.81 2.276 10.688 1.568 6.708-1.223 12.152-6.684 13.407-13.498C35.783 8.396 25.648-1.924 13.85.305z"/></g></g></g></g></g></g><g><path fill="#1eadaf" d="M18.292 11.488c.377.383.593.89.589 1.39a1.98 1.98 0 0 1-1.29 1.851c-1.64.596-2.741 2.235-2.741 4.076v.768c0 1.173.935 2.123 2.088 2.123s2.088-.95 2.088-2.123l-.032-.843c2.417-.879 4.05-3.22 4.063-5.83a6.306 6.306 0 0 0-1.812-4.416c-1.16-1.18-2.716-1.897-4.34-1.841-3.356.016-6.086 2.81-6.086 6.223 0 1.173.935 2.123 2.088 2.123s2.087-.95 2.087-2.123c0-1.084.868-1.97 1.933-1.977.526.012.988.215 1.365.6zm-3.475 14.536c0 1.192.95 2.158 2.12 2.158 1.173 0 2.122-.966 2.122-2.158 0-1.191-.95-2.157-2.121-2.157s-2.121.966-2.121 2.157zm-14.74 6.54l2.147-6.551a1.47 1.47 0 0 0-.095-1.125C.516 21.697-.15 17.933.547 13.965 1.751 7.125 7.133 1.575 13.85.305c11.798-2.23 21.933 8.09 19.72 20.093-1.256 6.814-6.699 12.274-13.406 13.498-3.879.707-7.563.05-10.688-1.567a1.406 1.406 0 0 0-1.1-.094l-6.467 2.192a1.478 1.478 0 0 1-.466.078c-.938 0-1.691-.95-1.366-1.94zm45.015 10.359l-6.467-2.193a1.406 1.406 0 0 0-1.1.092c-3.126 1.618-6.81 2.276-10.688 1.569-3.604-.657-6.835-2.546-9.256-5.202a20.079 20.079 0 0 0 3.109-.307c7.97-1.453 14.324-7.853 15.812-15.926.733-3.97.285-7.973-1.18-11.574 5.68 1.94 10.06 6.994 11.13 13.077.699 3.97.032 7.734-1.58 10.923-.178.35-.219.75-.096 1.126l2.147 6.55c.325.993-.428 1.942-1.366 1.942-.152 0-.308-.024-.465-.077z"/></g></g></g></svg>