<svg xmlns="http://www.w3.org/2000/svg" width="42" height="43" viewBox="0 0 42 43"><g><g><g><g><g><g><path fill="#173042" d="M23.864 21.411l-4.06-2.088c-.918-.473-1.11-1.365-.984-2.042.059-.314.346-1.349 1.631-1.485a3.095 3.095 0 0 1 3.11 1.849 1.8 1.8 0 1 0 3.305-1.436 6.621 6.621 0 0 0-3.617-3.52v-1.35a1.801 1.801 0 1 0-3.602 0v.949c-2.242.389-3.941 2.043-4.369 4.33-.451 2.416.705 4.79 2.878 5.909l4.059 2.088c.9.463 1.105 1.346.997 2.019-.048.3-.293 1.292-1.44 1.475a3.1 3.1 0 0 1-3.327-1.821 1.8 1.8 0 1 0-3.304 1.435 6.675 6.675 0 0 0 4.506 3.811v.904a1.801 1.801 0 1 0 3.602 0v-1.003c1.852-.632 3.197-2.21 3.52-4.232.387-2.41-.754-4.684-2.905-5.792z"/></g><g><path fill="#173042" d="M35.855 6.953C28.384-.52 16.657-1.15 8.434 5.006L6.746 3.318c-.955-.954-2.589-.39-2.75.95l-.929 7.668a1.618 1.618 0 0 0 1.801 1.8l7.667-.927c1.34-.163 1.904-1.797.95-2.751l-1.61-1.61c6.807-4.65 16.385-3.56 21.855 3.328 4.625 5.826 4.614 14.292-.026 20.107-6.132 7.687-17.417 8.152-24.173 1.395-3.953-3.953-5.417-9.45-4.423-14.564a.598.598 0 0 0-.582-.722H.865a.61.61 0 0 0-.602.508C-.909 25.868 1.83 33.74 8.505 38.724c7.544 5.632 18.185 5.437 25.542-.434 9.963-7.95 10.565-22.58 1.808-31.337z"/></g></g></g></g><g><path fill="#2285c3" d="M19.647 32.438a1.801 1.801 0 1 0 3.602 0v-1.003c1.852-.632 3.196-2.21 3.52-4.232.386-2.41-.755-4.684-2.906-5.792l-4.058-2.09c-.92-.472-1.112-1.363-.985-2.04.058-.314.345-1.35 1.631-1.485a3.095 3.095 0 0 1 3.11 1.848 1.801 1.801 0 1 0 3.305-1.435 6.62 6.62 0 0 0-3.617-3.521V11.34a1.802 1.802 0 0 0-3.602 0v.947c-2.242.39-3.941 2.043-4.369 4.331-.452 2.416.705 4.79 2.877 5.908l4.06 2.089c.9.462 1.105 1.346.997 2.019-.048.3-.294 1.292-1.44 1.475a3.1 3.1 0 0 1-3.327-1.822 1.802 1.802 0 1 0-3.305 1.436 6.677 6.677 0 0 0 4.507 3.811zM8.506 38.724c3.668 2.739 8.069 4.1 12.469 4.1 4.647 0 9.293-1.519 13.073-4.535 9.962-7.95 10.564-22.579 1.807-31.337-7.471-7.47-19.198-8.1-27.421-1.946L6.745 3.317c-.954-.954-2.588-.39-2.75.95l-.928 7.669a1.617 1.617 0 0 0 1.8 1.8l7.668-.927c1.34-.163 1.904-1.797.95-2.752l-1.61-1.61c6.807-4.65 16.385-3.56 21.855 3.33 4.625 5.825 4.613 14.29-.026 20.105-6.133 7.687-17.417 8.153-24.173 1.396-3.953-3.953-5.417-9.45-4.424-14.564a.597.597 0 0 0-.581-.722H.864a.608.608 0 0 0-.6.507C-.91 25.868 1.83 33.741 8.504 38.724z"/></g></g></g></svg>