<svg xmlns="http://www.w3.org/2000/svg" width="30" height="20" viewBox="0 0 30 20"><g><g><path fill="#fff" d="M8.052 16.454c.555 0 1.006-.434 1.006-.967 0-.534-.45-.968-1.006-.968s-1.007.434-1.007.968c0 .533.45.967 1.007.967zm14.09 0c.555 0 1.006-.434 1.006-.967 0-.534-.451-.968-1.007-.968-.556 0-1.007.434-1.007.968 0 .533.451.967 1.007.967zM7.898 3.032a.67.67 0 0 1 .636-.44h3.542c.37 0 .671.288.671.645v2.578c0 .357-.3.646-.671.646H7.64c-.459 0-.782-.432-.637-.85L7.9 3.033zm6.861.205c0-.357.301-.646.672-.646h2.94c.254 0 .486.139.6.357l1.341 2.58c.224.428-.1.933-.6.933h-4.281a.659.659 0 0 1-.672-.646zm1.007 5.319h2.013c.463 0 .839.36.839.806 0 .445-.376.806-.84.806h-2.012c-.463 0-.838-.361-.838-.806 0-.445.375-.806.838-.806zM8.05 12.908c1.48 0 2.684 1.157 2.684 2.579 0 1.423-1.204 2.579-2.684 2.579-1.48 0-2.683-1.156-2.683-2.58 0-1.421 1.203-2.578 2.683-2.578zm14.09 0c1.48 0 2.683 1.157 2.683 2.579 0 1.423-1.203 2.579-2.683 2.579-1.48 0-2.683-1.156-2.683-2.58 0-1.421 1.203-2.578 2.683-2.578zm-4.697 2.58C17.445 17.976 19.552 20 22.141 20c2.585 0 4.69-2.019 4.696-4.502l.892.001c.65.001 1.206-.445 1.322-1.06l.927-4.91c.122-.647-.28-1.277-.935-1.466l-5.062-1.46a1.332 1.332 0 0 1-.765-.57L19.848.637a1.357 1.357 0 0 0-1.15-.626L7.62 0c-.55 0-1.044.32-1.248.811L4.257 5.904a1.318 1.318 0 0 1-.822.746l-2.517.806A1.296 1.296 0 0 0 0 8.679v3.607c0 .393.187.764.506 1.01l2.482 1.897c.113.086.239.151.372.2 0 .03-.005.062-.005.094C3.355 17.975 5.462 20 8.05 20c2.59 0 4.697-2.025 4.697-4.513v-.004l4.696.005z"/></g></g></svg>