<svg xmlns="http://www.w3.org/2000/svg" width="26" height="21" viewBox="0 0 26 21"><g><g><path fill="#1eadaf" d="M17.105 3.483V2.007h-8.21v1.476H6.582V2.007C6.582.9 7.617 0 8.895 0h8.21c1.277 0 2.313.899 2.313 2.007v1.476zm-3.079 10.985v-.698c0-.491-.46-.89-1.026-.89-.567 0-1.026.399-1.026.89v.698H2.737C1.225 14.468 0 13.405 0 12.093V6.155c0-.656.613-1.187 1.368-1.187H24.63c.756 0 1.369.53 1.369 1.187v5.938c0 1.312-1.226 2.375-2.737 2.375zM2.736 21c-.755 0-1.368-.532-1.368-1.188v-4.048c.432.121.89.189 1.369.189h9.237v.418c0 .493.46.891 1.026.891.566 0 1.026-.398 1.026-.89v-.42h9.237c.477 0 .937-.067 1.368-.188v4.048c0 .656-.613 1.188-1.368 1.188z"/></g></g></svg>